<svg xmlns="http://www.w3.org/2000/svg" xmlns:xlink="http://www.w3.org/1999/xlink" viewBox="267.1208 719.3135 232.8353 301.6458" width="257.03707759232844" height="333" x="121.4815px" y="83.5px" preserveAspectRatio="none"><defs/><style>.companyName {fill:#D9F18A;fill-opacity:1;}.icon1 {fill:#FFA2E8;fill-opacity:1;}.icon2 {fill:#FFDEAC;fill-opacity:1;}.icon3 {fill:#89EFCA;fill-opacity:1;}.icon3-str {stroke:#89EFCA;stroke-opacity:1;}.text {fill:#D9F18A;fill-opacity:1;}</style><g opacity="1" transform="rotate(0 267.1208 719.3135)">
<svg width="232.8353" height="95.6458" x="267.1208" y="719.3135" version="1.1" preserveAspectRatio="none" viewBox="50.21800231933594 79.54999542236328 99.56501770019531 40.90000915527344">
  <g transform="matrix(1 0 0 1 0 0)"><g><path d="M145.6 87.199h-3.27c-.423 0-.824.082-1.209.199v-3.666a4.187 4.187 0 0 0-4.182-4.182h-7.261a4.187 4.187 0 0 0-4.182 4.182v10.899H74.504V83.732a4.187 4.187 0 0 0-4.182-4.182h-7.261a4.187 4.187 0 0 0-4.182 4.182v3.666a4.137 4.137 0 0 0-1.209-.199H54.4a4.187 4.187 0 0 0-4.182 4.182v17.238a4.187 4.187 0 0 0 4.182 4.182h3.27c.423 0 .823-.082 1.209-.199v3.666a4.187 4.187 0 0 0 4.182 4.182h7.261a4.187 4.187 0 0 0 4.182-4.182V105.07h50.993v11.198a4.187 4.187 0 0 0 4.182 4.182h7.261a4.187 4.187 0 0 0 4.182-4.182v-3.666c.385.117.786.199 1.209.199h3.27a4.187 4.187 0 0 0 4.182-4.182V91.381a4.188 4.188 0 0 0-4.183-4.182zm-86.735 21.42c0 .659-.536 1.195-1.195 1.195H54.4a1.196 1.196 0 0 1-1.195-1.195V91.381c0-.659.536-1.195 1.195-1.195h3.27c.659 0 1.195.536 1.195 1.195v17.238zm12.651 7.649c0 .659-.536 1.195-1.195 1.195H63.06a1.196 1.196 0 0 1-1.195-1.195V83.732c0-.659.536-1.195 1.195-1.195h7.261c.659 0 1.195.536 1.195 1.195v32.536zm2.988-12.094v-8.647h50.993v8.647H74.504zm63.63 12.094c0 .659-.536 1.195-1.195 1.195h-7.261a1.196 1.196 0 0 1-1.195-1.195V83.732c0-.659.536-1.195 1.195-1.195h7.261c.659 0 1.195.536 1.195 1.195v32.536zm8.661-7.649c0 .659-.536 1.195-1.195 1.195h-3.27a1.196 1.196 0 0 1-1.195-1.195V91.381c0-.659.536-1.195 1.195-1.195h3.27c.659 0 1.195.536 1.195 1.195v17.238z" data-color="1" class="icon1"/></g></g>
</svg>
</g><g opacity="1" transform="rotate(0 330.8878 996.9593)">
<svg width="105.3014" height="24" x="330.8878" y="996.9593" version="1.1" preserveAspectRatio="none" viewBox="2.56 -31.6 139.92 31.88">
  <g transform="matrix(1 0 0 1 0 0)" class="text"><path id="id-6izo4zJp7" d="M2.56-28.24L20.08-28.24L20.08-23.76L8.20-23.76L8.20-16.20L17.72-16.20L17.72-11.88L8.20-11.88L8.20 0L2.56 0L2.56-28.24Z M36.12-22.44Q39.36-22.44 41.94-21.08Q44.52-19.72 46-17.14Q47.48-14.56 47.48-11.08L47.48-11.08Q47.48-7.60 46-5.04Q44.52-2.48 41.94-1.10Q39.36 0.28 36.12 0.28L36.12 0.28Q32.88 0.28 30.30-1.10Q27.72-2.48 26.24-5.04Q24.76-7.60 24.76-11.08L24.76-11.08Q24.76-14.56 26.24-17.14Q27.72-19.72 30.30-21.08Q32.88-22.44 36.12-22.44L36.12-22.44ZM36.12-17.56Q33.76-17.56 32.12-15.90Q30.48-14.24 30.48-11.08L30.48-11.08Q30.48-7.92 32.12-6.26Q33.76-4.60 36.12-4.60L36.12-4.60Q38.48-4.60 40.12-6.26Q41.76-7.92 41.76-11.08L41.76-11.08Q41.76-14.24 40.12-15.90Q38.48-17.56 36.12-17.56L36.12-17.56Z M59.12-17.92Q60.36-20.04 62.40-21.26Q64.44-22.48 66.96-22.48L66.96-22.48L66.96-16.44L65.32-16.44Q59.12-16.44 59.12-10.68L59.12-10.68L59.12 0L53.48 0L53.48-22.16L59.12-22.16L59.12-17.92Z M77.72-28.24L77.72-4.32L87.20-4.32L87.20 0L72.08 0L72.08-28.24L77.72-28.24Z M91.92-28.52Q91.92-29.88 92.88-30.74Q93.84-31.60 95.40-31.60L95.40-31.60Q96.96-31.60 97.92-30.74Q98.88-29.88 98.88-28.52L98.88-28.52Q98.88-27.20 97.92-26.34Q96.96-25.48 95.40-25.48L95.40-25.48Q93.84-25.48 92.88-26.34Q91.92-27.20 91.92-28.52L91.92-28.52ZM92.56-22.16L98.20-22.16L98.20 0L92.56 0L92.56-22.16Z M116.28-26Q113.80-26.16 112.80-25.28Q111.80-24.40 111.80-22.20L111.80-22.20L111.80-22.16L116.28-22.16L116.28-17.40L111.80-17.40L111.80 0L106.16 0L106.16-17.40L103.32-17.40L103.32-22.16L106.16-22.16L106.16-22.68Q106.16-26.64 108.42-28.78Q110.68-30.92 115.12-30.92L115.12-30.92Q115.88-30.92 116.28-30.88L116.28-30.88L116.28-26Z M142.48-11.92Q142.48-11.08 142.28-10L142.28-10L126.04-10Q126.16-7.04 127.64-5.64Q129.12-4.24 131.32-4.24L131.32-4.24Q133.28-4.24 134.58-5.20Q135.88-6.16 136.24-7.80L136.24-7.80L142.20-7.80Q141.76-5.48 140.32-3.64Q138.88-1.80 136.62-0.76Q134.36 0.28 131.60 0.28L131.60 0.28Q128.36 0.28 125.84-1.10Q123.32-2.48 121.92-5.04Q120.52-7.60 120.52-11.08L120.52-11.08Q120.52-14.56 121.92-17.14Q123.32-19.72 125.84-21.08Q128.36-22.44 131.60-22.44L131.60-22.44Q134.88-22.44 137.34-21.08Q139.80-19.72 141.14-17.34Q142.48-14.96 142.48-11.92L142.48-11.92ZM136.80-12.48Q136.92-15.20 135.38-16.60Q133.84-18 131.60-18L131.60-18Q129.32-18 127.76-16.60Q126.20-15.20 126.04-12.48L126.04-12.48L136.80-12.48Z"/></g>
</svg>
</g><g opacity="1" transform="rotate(0 267.1208 854.9593)">
<svg width="232.8353" height="120" x="267.1208" y="854.9593" version="1.1" preserveAspectRatio="none" viewBox="2.08 -28.8 55.88 28.8">
  <g transform="matrix(1 0 0 1 0 0)" class="companyName"><path id="id-D6z1nYkh2" d="M14.60-4.40L2.08-4.40L2.08-11.80L14-28.80L23.56-28.80L23.56-12.08L26.44-12.08L26.44-4.40L23.56-4.40L23.56 0L14.60 0L14.60-4.40ZM15.32-12.08L15.32-18.68L11-12.08L15.32-12.08Z M57.96-28.32L47.48-14.56L57.96 0L47.28 0L39.04-12.28L39.04 0L30.16 0L30.16-28.32L39.04-28.32L39.04-16.36L47.36-28.32L57.96-28.32Z"/></g>
</svg>
</g></svg>