<svg xmlns="http://www.w3.org/2000/svg" xmlns:xlink="http://www.w3.org/1999/xlink" viewBox="1444.2221 1299.6838 678.1628 120" width="333" height="58.92390440761422" x="83.5px" y="220.538px" preserveAspectRatio="none"><defs/><style>.companyName {fill:#559092;fill-opacity:1;}.icon1 {fill:#559092;fill-opacity:1;}.icon2 {fill:#FBFBFB;fill-opacity:1;}.icon3 {fill:#185759;fill-opacity:1;}.icon3-str {stroke:#185759;stroke-opacity:1;}</style><g opacity="1" transform="rotate(0 1444.2221 1299.6838)">
<svg width="262.7733" height="120" x="1444.2221" y="1299.6838" version="1.1" preserveAspectRatio="none" viewBox="15 47.60000228881836 120 54.79999923706055">
  <g transform="matrix(1 0 0 1 0 0)" class="icon1"><g><path d="M135,71.3v7.4c0,1.2-0.9,2.1-2.1,2.1h-14.8v9c0,1.2-0.9,2.1-2.1,2.1c-1.2,0-2.1-0.9-2.1-2.1V60.2c0-1.2,0.9-2.1,2.1-2.1   c1.2,0,2.1,0.9,2.1,2.1v9h14.8C134.1,69.2,135,70.2,135,71.3z"/><path d="M36.2,60.2v29.5c0,1.2-0.9,2.1-2.1,2.1c-1.2,0-2.1-0.9-2.1-2.1v-9H17.1c-1.2,0-2.1-0.9-2.1-2.1v-7.4c0-1.2,0.9-2.1,2.1-2.1   H32v-9c0-1.2,0.9-2.1,2.1-2.1C35.2,58.1,36.2,59.1,36.2,60.2z"/><path d="M110.4,49.7v50.6c0,1.2-0.9,2.1-2.1,2.1H97.5c-1.2,0-2.1-0.9-2.1-2.1V80.8H54.6v19.5c0,1.2-0.9,2.1-2.1,2.1H41.7   c-1.2,0-2.1-0.9-2.1-2.1V49.7c0-1.2,0.9-2.1,2.1-2.1h10.8c1.2,0,2.1,0.9,2.1,2.1v19.5h40.8V49.7c0-1.2,0.9-2.1,2.1-2.1h10.8   C109.5,47.6,110.4,48.5,110.4,49.7z"/></g></g>
</svg>
</g><g opacity="1" transform="rotate(0 1736.9954 1299.6838)">
<svg width="385.3895" height="120" x="1736.9954" y="1299.6838" version="1.1" preserveAspectRatio="none" viewBox="1.08 -32.16 104.44 32.519999999999996">
  <g transform="matrix(1 0 0 1 0 0)" class="companyName"><path id="id-D6z1nYkh5" d="M27.76-11.64L27.76-5.36L23.60-5.36L23.60 0L15.88 0L15.88-5.36L1.08-5.36L1.08-10.52L13.64-28L21.84-28L10.44-11.64L16.12-11.64L16.12-16.40L23.60-16.40L23.60-11.64L27.76-11.64Z M30.80 0L30.80-28L38.72-28L38.72-6.28L52.08-6.28L52.08 0L30.80 0Z M54.84 0L54.84-21.68L62.44-21.68L62.44 0L54.84 0ZM58.64-24.08Q56.56-24.08 55.28-25.24Q54.00-26.40 54.00-28.12L54.00-28.12Q54.00-29.84 55.28-31Q56.56-32.16 58.64-32.16L58.64-32.16Q60.72-32.16 62.00-31.06Q63.28-29.96 63.28-28.24L63.28-28.24Q63.28-26.44 62.00-25.26Q60.72-24.08 58.64-24.08L58.64-24.08Z M75.64-21.36L75.64-20.88L80.80-20.88L80.80-15.20L75.84-15.20L75.84 0L68.24 0L68.24-15.20L65.08-15.20L65.08-20.88L68.24-20.88L68.24-21.44Q68.24-25.40 70.62-27.72Q73-30.04 77.28-30.04L77.28-30.04Q78.72-30.04 80.08-29.76Q81.44-29.48 82.32-28.92L82.32-28.92L80.44-23.56Q79.32-24.20 78.16-24.20L78.16-24.20Q76.96-24.20 76.30-23.48Q75.64-22.76 75.64-21.36L75.64-21.36Z M105.52-10.80Q105.52-10.72 105.40-8.92L105.40-8.92L89.64-8.92Q90.12-7.24 91.50-6.34Q92.88-5.44 94.96-5.44L94.96-5.44Q96.52-5.44 97.66-5.88Q98.80-6.32 99.96-7.32L99.96-7.32L103.96-3.16Q100.80 0.36 94.72 0.36L94.72 0.36Q90.92 0.36 88.04-1.08Q85.16-2.52 83.58-5.08Q82-7.64 82-10.88L82-10.88Q82-14.08 83.54-16.62Q85.08-19.16 87.80-20.60Q90.52-22.04 93.92-22.04L93.92-22.04Q97.16-22.04 99.80-20.70Q102.44-19.36 103.98-16.82Q105.52-14.28 105.52-10.80L105.52-10.80ZM93.96-16.64Q92.20-16.64 91.02-15.64Q89.84-14.64 89.52-12.92L89.52-12.92L98.40-12.92Q98.08-14.64 96.90-15.64Q95.72-16.64 93.96-16.64L93.96-16.64Z"/></g>
</svg>
</g></svg>